<svg width="289" height="54" viewBox="0 0 289 54" fill="none" xmlns="http://www.w3.org/2000/svg">
<path d="M66.748 40H63.544V23.332H57.856C57.616 26.38 57.316 28.984 56.956 31.144C56.596 33.28 56.14 35.02 55.588 36.364C55.036 37.708 54.376 38.692 53.608 39.316C52.84 39.94 51.94 40.252 50.908 40.252C50.596 40.252 50.284 40.228 49.972 40.18C49.684 40.156 49.444 40.096 49.252 40V37.624C49.396 37.672 49.552 37.708 49.72 37.732C49.888 37.756 50.056 37.768 50.224 37.768C50.752 37.768 51.232 37.552 51.664 37.12C52.096 36.688 52.48 36.028 52.816 35.14C53.176 34.252 53.5 33.136 53.788 31.792C54.076 30.424 54.328 28.816 54.544 26.968C54.76 25.12 54.952 23.032 55.12 20.704H66.748V40ZM80.1805 20.38C82.5325 20.38 84.2725 20.896 85.4005 21.928C86.5285 22.96 87.0925 24.604 87.0925 26.86V40H84.7885L84.1765 37.264H84.0325C83.4805 37.96 82.9045 38.548 82.3045 39.028C81.7285 39.484 81.0565 39.82 80.2885 40.036C79.5445 40.252 78.6325 40.36 77.5525 40.36C76.4005 40.36 75.3565 40.156 74.4205 39.748C73.5085 39.34 72.7885 38.716 72.2605 37.876C71.7325 37.012 71.4685 35.932 71.4685 34.636C71.4685 32.716 72.2245 31.24 73.7365 30.208C75.2485 29.152 77.5765 28.576 80.7205 28.48L83.9965 28.372V27.22C83.9965 25.612 83.6485 24.496 82.9525 23.872C82.2565 23.248 81.2725 22.936 80.0005 22.936C78.9925 22.936 78.0325 23.092 77.1205 23.404C76.2085 23.692 75.3565 24.028 74.5645 24.412L73.5925 22.036C74.4325 21.58 75.4285 21.196 76.5805 20.884C77.7325 20.548 78.9325 20.38 80.1805 20.38ZM81.1165 30.676C78.7165 30.772 77.0485 31.156 76.1125 31.828C75.2005 32.5 74.7445 33.448 74.7445 34.672C74.7445 35.752 75.0685 36.544 75.7165 37.048C76.3885 37.552 77.2405 37.804 78.2725 37.804C79.9045 37.804 81.2605 37.36 82.3405 36.472C83.4205 35.56 83.9605 34.168 83.9605 32.296V30.568L81.1165 30.676ZM109.36 20.704V40H106.192V23.404H96.2202V40H93.0522V20.704H109.36ZM132.293 30.316C132.293 31.924 132.077 33.352 131.645 34.6C131.237 35.824 130.637 36.868 129.845 37.732C129.077 38.596 128.129 39.256 127.001 39.712C125.897 40.144 124.661 40.36 123.293 40.36C122.021 40.36 120.845 40.144 119.765 39.712C118.685 39.256 117.749 38.596 116.957 37.732C116.165 36.868 115.541 35.824 115.085 34.6C114.653 33.352 114.437 31.924 114.437 30.316C114.437 28.18 114.797 26.38 115.517 24.916C116.237 23.428 117.269 22.3 118.613 21.532C119.957 20.74 121.553 20.344 123.401 20.344C125.153 20.344 126.689 20.74 128.009 21.532C129.353 22.3 130.397 23.428 131.141 24.916C131.909 26.38 132.293 28.18 132.293 30.316ZM117.713 30.316C117.713 31.828 117.905 33.148 118.289 34.276C118.697 35.38 119.321 36.232 120.161 36.832C121.001 37.432 122.069 37.732 123.365 37.732C124.661 37.732 125.729 37.432 126.569 36.832C127.409 36.232 128.021 35.38 128.405 34.276C128.813 33.148 129.017 31.828 129.017 30.316C129.017 28.78 128.813 27.472 128.405 26.392C127.997 25.312 127.373 24.484 126.533 23.908C125.717 23.308 124.649 23.008 123.329 23.008C121.361 23.008 119.933 23.656 119.045 24.952C118.157 26.248 117.713 28.036 117.713 30.316ZM139.734 27.724C139.734 28.852 140.046 29.692 140.67 30.244C141.318 30.772 142.242 31.036 143.442 31.036C144.642 31.036 145.734 30.856 146.718 30.496C147.702 30.112 148.71 29.608 149.742 28.984V20.704H152.91V40H149.742V31.396C148.662 32.092 147.594 32.644 146.538 33.052C145.506 33.436 144.258 33.628 142.794 33.628C140.826 33.628 139.29 33.112 138.186 32.08C137.106 31.048 136.566 29.668 136.566 27.94V20.704H139.734V27.724ZM170.452 20.704H173.908L165.664 29.992L174.592 40H170.92L162.208 30.208V40H159.04V20.704H162.208V30.064L170.452 20.704ZM185.403 20.38C187.755 20.38 189.495 20.896 190.623 21.928C191.751 22.96 192.315 24.604 192.315 26.86V40H190.011L189.399 37.264H189.255C188.703 37.96 188.127 38.548 187.527 39.028C186.951 39.484 186.279 39.82 185.511 40.036C184.767 40.252 183.855 40.36 182.775 40.36C181.623 40.36 180.579 40.156 179.643 39.748C178.731 39.34 178.011 38.716 177.483 37.876C176.955 37.012 176.691 35.932 176.691 34.636C176.691 32.716 177.447 31.24 178.959 30.208C180.471 29.152 182.799 28.576 185.943 28.48L189.219 28.372V27.22C189.219 25.612 188.871 24.496 188.175 23.872C187.479 23.248 186.495 22.936 185.223 22.936C184.215 22.936 183.255 23.092 182.343 23.404C181.431 23.692 180.579 24.028 179.787 24.412L178.815 22.036C179.655 21.58 180.651 21.196 181.803 20.884C182.955 20.548 184.155 20.38 185.403 20.38ZM186.339 30.676C183.939 30.772 182.271 31.156 181.335 31.828C180.423 32.5 179.967 33.448 179.967 34.672C179.967 35.752 180.291 36.544 180.939 37.048C181.611 37.552 182.463 37.804 183.495 37.804C185.127 37.804 186.483 37.36 187.563 36.472C188.643 35.56 189.183 34.168 189.183 32.296V30.568L186.339 30.676Z" fill="#039364"/>
<path d="M200.175 40.2045C199.544 40.2045 199.003 39.9787 198.551 39.527C198.1 39.0753 197.874 38.5341 197.874 37.9034C197.874 37.2727 198.1 36.7315 198.551 36.2798C199.003 35.8281 199.544 35.6023 200.175 35.6023C200.806 35.6023 201.347 35.8281 201.799 36.2798C202.25 36.7315 202.476 37.2727 202.476 37.9034C202.476 38.321 202.37 38.7045 202.157 39.054C201.952 39.4034 201.675 39.6847 201.326 39.8977C200.985 40.1023 200.601 40.2045 200.175 40.2045ZM221.799 24.7614L219.089 25.5284C218.919 25.0767 218.667 24.6378 218.335 24.2116C218.011 23.777 217.568 23.419 217.005 23.1378C216.443 22.8565 215.723 22.7159 214.845 22.7159C213.643 22.7159 212.642 22.9929 211.841 23.5469C211.048 24.0923 210.652 24.7869 210.652 25.6307C210.652 26.3807 210.924 26.973 211.47 27.4077C212.015 27.8423 212.868 28.2045 214.027 28.4943L216.941 29.2102C218.697 29.6364 220.005 30.2884 220.866 31.1662C221.727 32.0355 222.157 33.1562 222.157 34.5284C222.157 35.6534 221.833 36.6591 221.186 37.5455C220.547 38.4318 219.652 39.1307 218.501 39.642C217.35 40.1534 216.012 40.4091 214.487 40.4091C212.484 40.4091 210.826 39.9744 209.514 39.1051C208.201 38.2358 207.37 36.9659 207.021 35.2955L209.885 34.5795C210.157 35.6364 210.673 36.429 211.431 36.9574C212.199 37.4858 213.2 37.75 214.436 37.75C215.842 37.75 216.958 37.4517 217.785 36.8551C218.62 36.25 219.038 35.5256 219.038 34.6818C219.038 34 218.799 33.429 218.322 32.9688C217.845 32.5 217.112 32.1506 216.123 31.9205L212.85 31.1534C211.052 30.7273 209.731 30.0668 208.887 29.1719C208.052 28.2685 207.635 27.1392 207.635 25.7841C207.635 24.6761 207.946 23.696 208.568 22.8438C209.199 21.9915 210.055 21.3224 211.137 20.8366C212.228 20.3509 213.464 20.108 214.845 20.108C216.788 20.108 218.314 20.5341 219.422 21.3864C220.538 22.2386 221.331 23.3636 221.799 24.7614ZM229.716 28.1875V40H226.699V13.8182H229.716V23.4318H229.972C230.432 22.4176 231.122 21.6122 232.043 21.0156C232.972 20.4105 234.207 20.108 235.75 20.108C237.088 20.108 238.26 20.3764 239.266 20.9134C240.271 21.4418 241.051 22.2557 241.605 23.3551C242.168 24.446 242.449 25.8352 242.449 27.5227V40H239.432V27.7273C239.432 26.1676 239.027 24.9616 238.217 24.1094C237.416 23.2486 236.304 22.8182 234.881 22.8182C233.892 22.8182 233.006 23.027 232.222 23.4446C231.446 23.8622 230.832 24.4716 230.381 25.2727C229.938 26.0739 229.716 27.0455 229.716 28.1875ZM255.946 40.4091C254.173 40.4091 252.618 39.9872 251.279 39.1435C249.95 38.2997 248.91 37.1193 248.16 35.6023C247.419 34.0852 247.048 32.3125 247.048 30.2841C247.048 28.2386 247.419 26.4531 248.16 24.9276C248.91 23.402 249.95 22.2173 251.279 21.3736C252.618 20.5298 254.173 20.108 255.946 20.108C257.718 20.108 259.27 20.5298 260.599 21.3736C261.937 22.2173 262.977 23.402 263.718 24.9276C264.468 26.4531 264.843 28.2386 264.843 30.2841C264.843 32.3125 264.468 34.0852 263.718 35.6023C262.977 37.1193 261.937 38.2997 260.599 39.1435C259.27 39.9872 257.718 40.4091 255.946 40.4091ZM255.946 37.6989C257.292 37.6989 258.4 37.3537 259.27 36.6634C260.139 35.973 260.782 35.0653 261.2 33.9403C261.618 32.8153 261.826 31.5966 261.826 30.2841C261.826 28.9716 261.618 27.7486 261.2 26.6151C260.782 25.4815 260.139 24.5653 259.27 23.8665C258.4 23.1676 257.292 22.8182 255.946 22.8182C254.599 22.8182 253.491 23.1676 252.622 23.8665C251.752 24.5653 251.109 25.4815 250.691 26.6151C250.274 27.7486 250.065 28.9716 250.065 30.2841C250.065 31.5966 250.274 32.8153 250.691 33.9403C251.109 35.0653 251.752 35.973 252.622 36.6634C253.491 37.3537 254.599 37.6989 255.946 37.6989ZM269.449 47.3636V20.3636H272.364V23.483H272.722C272.943 23.142 273.25 22.7074 273.642 22.179C274.043 21.642 274.614 21.1648 275.355 20.7472C276.105 20.321 277.119 20.108 278.398 20.108C280.051 20.108 281.509 20.5213 282.77 21.348C284.031 22.1747 285.016 23.3466 285.723 24.8636C286.43 26.3807 286.784 28.1705 286.784 30.233C286.784 32.3125 286.43 34.1151 285.723 35.6406C285.016 37.1577 284.036 38.3338 282.783 39.169C281.53 39.9957 280.085 40.4091 278.449 40.4091C277.188 40.4091 276.178 40.2003 275.419 39.7827C274.661 39.3565 274.077 38.875 273.668 38.3381C273.259 37.7926 272.943 37.3409 272.722 36.983H272.466V47.3636H269.449ZM272.415 30.1818C272.415 31.6648 272.632 32.973 273.067 34.1065C273.501 35.2315 274.136 36.1136 274.972 36.7528C275.807 37.3835 276.83 37.6989 278.04 37.6989C279.301 37.6989 280.354 37.3665 281.197 36.7017C282.05 36.0284 282.689 35.125 283.115 33.9915C283.55 32.8494 283.767 31.5795 283.767 30.1818C283.767 28.8011 283.554 27.5568 283.128 26.4489C282.71 25.3324 282.075 24.4503 281.223 23.8026C280.379 23.1463 279.318 22.8182 278.04 22.8182C276.813 22.8182 275.781 23.1293 274.946 23.7514C274.111 24.3651 273.48 25.2259 273.054 26.3338C272.628 27.4332 272.415 28.7159 272.415 30.1818Z" fill="#A87019"/>
<path d="M16.9583 20C18.6612 20 20.0417 18.6569 20.0417 17C20.0417 15.3431 18.6612 14 16.9583 14C15.2555 14 13.875 15.3431 13.875 17C13.875 18.6569 15.2555 20 16.9583 20Z" fill="#039364" stroke="#039364" stroke-width="2" stroke-linecap="round" stroke-linejoin="round"/>
<path d="M27.75 26C29.4529 26 30.8333 24.6569 30.8333 23C30.8333 21.3431 29.4529 20 27.75 20C26.0471 20 24.6667 21.3431 24.6667 23C24.6667 24.6569 26.0471 26 27.75 26Z" fill="#039364" stroke="#039364" stroke-width="2" stroke-linecap="round" stroke-linejoin="round"/>
<path d="M30.8333 38C32.5362 38 33.9167 36.6569 33.9167 35C33.9167 33.3431 32.5362 32 30.8333 32C29.1305 32 27.75 33.3431 27.75 35C27.75 36.6569 29.1305 38 30.8333 38Z" fill="#039364" stroke="#039364" stroke-width="2" stroke-linecap="round" stroke-linejoin="round"/>
<path d="M13.875 26C14.8873 26 15.8896 26.194 16.8248 26.5709C17.7601 26.9478 18.6098 27.5003 19.3256 28.1967C20.0414 28.8931 20.6092 29.7199 20.9966 30.6299C21.3839 31.5398 21.5833 32.5151 21.5833 33.5V38.75C21.5829 40.0047 21.1207 41.2178 20.2803 42.1695C19.44 43.1212 18.2772 43.7486 17.0024 43.9381C15.7276 44.1276 14.4253 43.8666 13.3312 43.2024C12.2372 42.5383 11.4238 41.5148 11.0383 40.3175C10.3805 38.2525 8.99304 36.9 6.87582 36.26C5.64586 35.8852 4.59441 35.0944 3.91175 34.0307C3.2291 32.9669 2.96032 31.7006 3.15407 30.4608C3.34781 29.221 3.99127 28.0896 4.96802 27.2714C5.94477 26.4532 7.19027 26.0022 8.47916 26H13.875Z" fill="#039364"/>
</svg>
